<?xml version="1.0" encoding="UTF-8"?>
<!DOCTYPE svg PUBLIC "-//W3C//DTD SVG 1.1//EN" "http://www.w3.org/Graphics/SVG/1.1/DTD/svg11.dtd">
<!-- Creator: CorelDRAW X6 -->
<svg xmlns="http://www.w3.org/2000/svg" xml:space="preserve" width="3.63763in" height="0.731295in" version="1.1" style="shape-rendering:geometricPrecision; text-rendering:geometricPrecision; image-rendering:optimizeQuality; fill-rule:evenodd; clip-rule:evenodd"
viewBox="0 0 2193 441"
 xmlns:xlink="http://www.w3.org/1999/xlink">
 <defs>
  <style type="text/css">
   <![CDATA[
    .fil0 {fill:white;fill-rule:nonzero}
   ]]>
  </style>
 </defs>
 <g id="Layer_x0020_1">
  <metadata id="CorelCorpID_0Corel-Layer"/>
  <path class="fil0" d="M235 441l59 0 0 -441 -59 0 0 199 -176 0 0 -199 -59 0 0 242 235 0 0 199zm-176 -153l-59 0 0 153 59 0 0 -153z"/>
  <path id="1" class="fil0" d="M473 419c26,15 54,22 85,22l2 0c31,0 59,-7 85,-22 30,-17 55,-41 73,-72 18,-31 28,-66 28,-104l0 -45c0,-38 -9,-73 -28,-104 -18,-31 -42,-55 -73,-72 -26,-15 -54,-22 -85,-22l-2 0c-31,0 -59,7 -85,22 -30,17 -54,41 -73,72 -18,31 -27,66 -27,104l0 45c0,38 9,73 27,104 18,31 43,55 73,72zm-41 -225c0,-8 1,-16 1,-23 6,-42 22,-74 46,-95 24,-21 51,-32 81,-32 30,0 57,10 81,32 24,21 39,53 45,95 1,8 2,15 2,23l0 53c0,8 -1,16 -2,23 -6,42 -21,74 -45,95 -24,21 -51,32 -81,32 -30,0 -57,-10 -81,-32 -24,-21 -39,-53 -46,-95 -1,-8 -1,-15 -1,-23l0 -53zm101 54c9,11 15,22 19,32 4,10 7,18 8,25 1,-6 4,-14 8,-25 4,-10 11,-21 20,-32 11,-13 22,-22 31,-26 -9,-5 -20,-14 -31,-27 -9,-11 -15,-22 -19,-31 -4,-10 -7,-18 -8,-25 -1,7 -4,14 -8,25 -4,10 -11,20 -19,31 -12,13 -22,22 -31,27 10,5 20,14 31,26z"/>
  <path id="2" class="fil0" d="M882 325l0 -44 0 -281 -59 0 0 281 0 44 0 27 59 0 0 -27zm212 72l-272 0 0 44 272 0 0 -44z"/>
  <polygon id="3" class="fil0" points="1225,0 1166,0 1166,441 1225,441 "/>
  <path id="4" class="fil0" d="M1616 331l0 -23c0,-18 -4,-34 -12,-49 -8,-15 -19,-28 -32,-38 13,-10 24,-23 32,-38 8,-15 12,-32 12,-50l0 -23c0,-20 -5,-38 -15,-55 -10,-17 -23,-30 -40,-40 -17,-10 -35,-15 -55,-15l-136 0 -59 0 0 44 0 155 0 111 0 22 59 0 0 -22 0 -68 118 0c19,0 35,7 48,20 13,14 20,29 20,48l0 18c0,19 -7,35 -20,48 -13,14 -29,20 -48,20l-177 0 0 44 195 0c20,0 39,-5 55,-15 17,-10 30,-23 40,-40 10,-17 15,-35 15,-55zm-127 -133l-118 0 0 -155 118 0c19,0 35,6 48,20 13,13 20,29 20,48l0 18c0,19 -7,35 -20,48 -13,13 -29,20 -48,20z"/>
  <path id="5" class="fil0" d="M1784 419c26,15 54,22 85,22l2 0c31,0 59,-7 85,-22 30,-17 55,-41 73,-72 18,-31 28,-66 28,-104l0 -45c0,-38 -9,-73 -28,-104 -18,-31 -42,-55 -73,-72 -26,-15 -54,-22 -85,-22l-2 0c-31,0 -59,7 -85,22 -30,17 -54,41 -73,72 -18,31 -27,66 -27,104l0 45c0,38 9,73 27,104 18,31 43,55 73,72zm-41 -225c0,-8 1,-16 1,-23 6,-42 22,-74 46,-95 24,-21 51,-32 81,-32 30,0 57,10 81,32 24,21 39,53 45,95 1,8 2,15 2,23l0 53c0,8 -1,16 -2,23 -6,42 -21,74 -45,95 -24,21 -51,32 -81,32 -30,0 -57,-10 -81,-32 -24,-21 -39,-53 -46,-95 -1,-8 -1,-15 -1,-23l0 -53zm101 54c9,11 15,22 19,32 4,10 7,18 8,25 1,-6 4,-14 8,-25 4,-10 11,-21 20,-32 11,-13 22,-22 31,-26 -9,-5 -20,-14 -31,-27 -9,-11 -15,-22 -19,-31 -4,-10 -7,-18 -8,-25 -1,7 -4,14 -8,25 -4,10 -11,20 -19,31 -12,13 -22,22 -31,27 10,5 20,14 31,26z"/>
  <polygon id="6" class="fil0" points="2193,0 2134,0 2134,441 2193,441 "/>
 </g>
</svg>
